<svg x="0.0000mm" y="0.0000mm" width="376.7670mm" height="77.2580mm" viewBox="0.0000 0.0000 376.7670 77.2580"
  version="1.1" xmlns="http://www.w3.org/2000/svg" shape-rendering="crispEdges">
  <g fill="rgb(0%,0%,0%)">
  </g>
  <g fill="rgb(100%,100%,100%)">
    <rect x="0.0000" y="0.0000" width="376.7670" height="77.2580" />
  </g>
  <g fill="rgb(0%,0%,0%)">
  </g>
  <g fill="rgb(0%,0%,0%)">
    <rect x="0.0000" y="0.0000" width="3.0883" height="59.2271" />
    <rect x="4.6324" y="0.0000" width="1.5441" height="59.2271" />
    <rect x="9.2648" y="0.0000" width="1.5441" height="59.2271" />
    <rect x="16.9854" y="0.0000" width="1.5441" height="59.2271" />
    <rect x="20.0737" y="0.0000" width="1.5441" height="59.2271" />
    <rect x="26.2502" y="0.0000" width="3.0883" height="59.2271" />
    <rect x="33.9708" y="0.0000" width="3.0883" height="59.2271" />
    <rect x="41.6914" y="0.0000" width="1.5441" height="59.2271" />
    <rect x="44.7797" y="0.0000" width="1.5441" height="59.2271" />
    <rect x="50.9562" y="0.0000" width="3.0883" height="59.2271" />
    <rect x="55.5886" y="0.0000" width="4.6324" height="59.2271" />
    <rect x="64.8533" y="0.0000" width="1.5441" height="59.2271" />
    <rect x="67.9416" y="0.0000" width="1.5441" height="59.2271" />
    <rect x="74.1181" y="0.0000" width="3.0883" height="59.2271" />
    <rect x="81.8387" y="0.0000" width="1.5441" height="59.2271" />
    <rect x="84.9270" y="0.0000" width="3.0883" height="59.2271" />
    <rect x="89.5594" y="0.0000" width="3.0883" height="59.2271" />
    <rect x="95.7359" y="0.0000" width="3.0883" height="59.2271" />
    <rect x="101.9124" y="0.0000" width="3.0883" height="59.2271" />
    <rect x="109.6330" y="0.0000" width="1.5441" height="59.2271" />
    <rect x="112.7213" y="0.0000" width="4.6324" height="59.2271" />
    <rect x="118.8978" y="0.0000" width="1.5441" height="59.2271" />
    <rect x="121.9860" y="0.0000" width="3.0883" height="59.2271" />
    <rect x="128.1625" y="0.0000" width="1.5441" height="59.2271" />
    <rect x="135.8832" y="0.0000" width="1.5441" height="59.2271" />
    <rect x="140.5156" y="0.0000" width="3.0883" height="59.2271" />
    <rect x="145.1479" y="0.0000" width="1.5441" height="59.2271" />
    <rect x="152.8686" y="0.0000" width="3.0883" height="59.2271" />
    <rect x="157.5010" y="0.0000" width="3.0883" height="59.2271" />
    <rect x="163.6775" y="0.0000" width="3.0883" height="59.2271" />
    <rect x="169.8540" y="0.0000" width="1.5441" height="59.2271" />
    <rect x="172.9422" y="0.0000" width="4.6324" height="59.2271" />
    <rect x="182.2070" y="0.0000" width="3.0883" height="59.2271" />
    <rect x="186.8394" y="0.0000" width="1.5441" height="59.2271" />
    <rect x="193.0159" y="0.0000" width="6.1765" height="59.2271" />
    <rect x="200.7365" y="0.0000" width="1.5441" height="59.2271" />
    <rect x="203.8248" y="0.0000" width="4.6324" height="59.2271" />
    <rect x="211.5454" y="0.0000" width="1.5441" height="59.2271" />
    <rect x="216.1778" y="0.0000" width="3.0883" height="59.2271" />
    <rect x="220.8102" y="0.0000" width="1.5441" height="59.2271" />
    <rect x="225.4425" y="0.0000" width="4.6324" height="59.2271" />
    <rect x="233.1632" y="0.0000" width="3.0883" height="59.2271" />
    <rect x="237.7956" y="0.0000" width="4.6324" height="59.2271" />
    <rect x="243.9721" y="0.0000" width="1.5441" height="59.2271" />
    <rect x="248.6045" y="0.0000" width="3.0883" height="59.2271" />
    <rect x="254.7810" y="0.0000" width="3.0883" height="59.2271" />
    <rect x="260.9575" y="0.0000" width="4.6324" height="59.2271" />
    <rect x="267.1340" y="0.0000" width="1.5441" height="59.2271" />
    <rect x="271.7664" y="0.0000" width="1.5441" height="59.2271" />
    <rect x="274.8546" y="0.0000" width="4.6324" height="59.2271" />
    <rect x="282.5753" y="0.0000" width="3.0883" height="59.2271" />
    <rect x="288.7518" y="0.0000" width="1.5441" height="59.2271" />
    <rect x="291.8400" y="0.0000" width="4.6324" height="59.2271" />
    <rect x="298.0165" y="0.0000" width="6.1765" height="59.2271" />
    <rect x="305.7372" y="0.0000" width="3.0883" height="59.2271" />
    <rect x="311.9137" y="0.0000" width="1.5441" height="59.2271" />
    <rect x="316.5460" y="0.0000" width="4.6324" height="59.2271" />
    <rect x="322.7226" y="0.0000" width="1.5441" height="59.2271" />
    <rect x="327.3549" y="0.0000" width="3.0883" height="59.2271" />
    <rect x="333.5314" y="0.0000" width="1.5441" height="59.2271" />
    <rect x="339.7080" y="0.0000" width="1.5441" height="59.2271" />
    <rect x="344.3403" y="0.0000" width="1.5441" height="59.2271" />
    <rect x="348.9727" y="0.0000" width="3.0883" height="59.2271" />
    <rect x="356.6933" y="0.0000" width="3.0883" height="59.2271" />
    <rect x="364.4140" y="0.0000" width="4.6324" height="59.2271" />
    <rect x="370.5905" y="0.0000" width="1.5441" height="59.2271" />
    <rect x="373.6787" y="0.0000" width="3.0883" height="59.2271" />
  </g>
  <g fill="rgb(0%,0%,0%)">
    <text x="188.3835" y="73.8772" transform="rotate(360 188.3835,73.8772)" text-anchor="middle" font-family="Arial"
      font-size="16.2278">AHTF Reg No:186/2006</text>
  </g>
</svg>